HIERARCHY
ROOT joint_0
{
	OFFSET 0.000000 0.000000 0.000000
	CHANNELS 6 Xposition Yposition Zposition Zrotation Yrotation Xrotation 
	JOINT joint_1
	{
		OFFSET 7.566162 2.250183 114.799927
		CHANNELS 3 Zrotation Yrotation Xrotation
		JOINT joint_2
		{
			OFFSET -5.201660 -0.414001 104.936035
			CHANNELS 3 Zrotation Yrotation Xrotation
			JOINT joint_3
			{
				OFFSET -6.923584 -0.419739 104.718018
				CHANNELS 3 Zrotation Yrotation Xrotation
				JOINT joint_4
				{
					OFFSET 3.108887 2.881104 149.449951
					CHANNELS 3 Zrotation Yrotation Xrotation
					JOINT joint_5
					{
						OFFSET 19.988770 5.920349 90.786987
						CHANNELS 3 Zrotation Yrotation Xrotation
						End Site
						{
							OFFSET 0.000000 0.000000 0.000000
						}
					}
				}
				JOINT joint_6
				{
					OFFSET 9.283936 -30.015930 84.410034
					CHANNELS 3 Zrotation Yrotation Xrotation
					JOINT joint_7
					{
						OFFSET 47.243164 -155.716736 -23.241089
						CHANNELS 3 Zrotation Yrotation Xrotation
						JOINT joint_8
						{
							OFFSET 31.323730 -15.356873 -268.798950
							CHANNELS 3 Zrotation Yrotation Xrotation
							JOINT joint_9
							{
								OFFSET 28.122314 -2.114624 -262.450012
								CHANNELS 3 Zrotation Yrotation Xrotation
								End Site
								{
									OFFSET 0.000000 0.000000 0.000000
								}
							}
						}
					}
				}
				JOINT joint_10
				{
					OFFSET -5.580566 33.311218 83.498047
					CHANNELS 3 Zrotation Yrotation Xrotation
					JOINT joint_11
					{
						OFFSET -22.773438 160.515381 -27.138062
						CHANNELS 3 Zrotation Yrotation Xrotation
						JOINT joint_12
						{
							OFFSET 27.004395 30.848877 -267.937988
							CHANNELS 3 Zrotation Yrotation Xrotation
							JOINT joint_13
							{
								OFFSET 32.625000 14.824585 -261.518005
								CHANNELS 3 Zrotation Yrotation Xrotation
								End Site
								{
									OFFSET 0.000000 0.000000 0.000000
								}
							}
						}
					}
				}
			}
		}
	}
	JOINT joint_14
	{
		OFFSET 20.623535 -83.447632 -106.174011
		CHANNELS 3 Zrotation Yrotation Xrotation
		JOINT joint_15
		{
			OFFSET 0.661865 -23.563843 -459.915039
			CHANNELS 3 Zrotation Yrotation Xrotation
			JOINT joint_16
			{
				OFFSET -23.461670 -28.727966 -444.760971
				CHANNELS 3 Zrotation Yrotation Xrotation
				JOINT joint_17
				{
					OFFSET 178.992920 54.047363 -80.113001
					CHANNELS 3 Zrotation Yrotation Xrotation
					End Site
					{
						OFFSET 0.000000 0.000000 0.000000
					}
				}
			}
		}
	}
	JOINT joint_18
	{
		OFFSET -19.571533 84.686279 -105.380005
		CHANNELS 3 Zrotation Yrotation Xrotation
		JOINT joint_19
		{
			OFFSET -22.949951 3.639404 -459.933044
			CHANNELS 3 Zrotation Yrotation Xrotation
			JOINT joint_20
			{
				OFFSET -33.690674 4.092651 -445.010971
				CHANNELS 3 Zrotation Yrotation Xrotation
				JOINT joint_21
				{
					OFFSET 187.419678 18.953857 -76.759001
					CHANNELS 3 Zrotation Yrotation Xrotation
					End Site
					{
						OFFSET 0.000000 0.000000 0.000000
					}
				}
			}
		}
	}
}
MOTION
Frames: 8
Frame Time: 0.016667
-3004.347900 860.744080 1089.567993 7.125121 4.834644 -0.581382 -3.434657 10.318824 7.710880 -1.278013 -1.507892 -1.236173 -0.692925 1.612831 1.161812 0.440742 -4.560615 -0.611095 0.000000 0.000000 0.000000 6.149149 -1.971865 -4.068989 -3.968857 -0.226331 -3.624438 1.168347 -27.896489 25.352710 0.000000 0.000000 0.000000 -0.306228 -5.204693 -1.433191 0.077364 -4.230229 4.535372 -0.815486 -6.141012 -3.909842 0.000000 0.000000 0.000000 -1.272421 -17.032731 -5.642229 -5.079529 22.741907 -5.020971 -4.262626 -6.109219 0.131469 0.000000 0.000000 0.000000 -7.532181 -6.660541 14.118667 -6.910411 44.532634 -14.607152 -13.462816 8.454956 -5.474915 0.000000 0.000000 0.000000 
-2996.183350 857.919922 1091.004028 7.899722 4.598668 -0.244020 -3.769476 10.634655 7.315932 -1.088433 -1.627289 -1.194403 -0.407334 1.715237 1.085025 0.404246 -4.340491 -0.517054 0.000000 0.000000 0.000000 6.140866 -2.131357 -3.771746 -3.998402 -0.430549 -3.516951 1.006254 -27.275440 24.632255 0.000000 0.000000 0.000000 -0.255041 -5.008749 -1.167663 0.082776 -4.168443 4.018886 -0.743134 -6.670458 -2.901350 0.000000 0.000000 0.000000 -1.386444 -16.393741 -5.722445 -5.332912 23.152785 -5.321956 -4.551191 -6.189373 0.045432 0.000000 0.000000 0.000000 -7.753872 -8.458578 14.878514 -7.403938 47.889622 -15.688642 -14.465257 9.203820 -5.898322 0.000000 0.000000 0.000000 
-2987.873779 856.422363 1093.541016 8.055690 4.543855 0.238064 -3.916270 10.684940 6.639310 -0.769276 -1.708977 -1.159046 0.005625 1.803770 0.993673 0.346400 -4.071089 -0.338563 0.000000 0.000000 0.000000 6.180968 -2.309869 -3.464206 -3.908710 -0.640901 -3.319257 0.864729 -26.245244 23.465943 0.000000 0.000000 0.000000 -0.271528 -4.477547 -0.631740 0.057863 -3.922791 2.670439 -0.609441 -7.451022 -1.271398 0.000000 0.000000 0.000000 -1.311261 -15.715571 -5.927070 -5.364357 22.879352 -5.634395 -4.700957 -6.107269 -0.035461 0.000000 0.000000 0.000000 -7.493691 -10.269339 15.261382 -7.514698 50.914438 -16.650754 -14.780831 9.965039 -6.098390 0.000000 0.000000 0.000000 
-2979.638428 856.064392 1096.291016 7.882708 4.449001 0.681869 -3.934850 10.665872 6.030454 -0.400284 -1.753931 -1.133919 0.456897 1.856055 0.901387 0.304295 -3.849209 -0.210643 0.000000 0.000000 0.000000 6.188538 -2.454243 -3.263255 -3.790396 -0.796913 -3.124490 0.761286 -25.197828 22.413106 0.000000 0.000000 0.000000 -0.235987 -3.957946 -0.223353 0.052104 -3.639377 1.550510 -0.533034 -8.245471 -0.052903 0.000000 0.000000 0.000000 -1.194443 -14.902845 -6.222250 -5.260969 22.312850 -5.741521 -4.727311 -5.909507 -0.103473 0.000000 0.000000 0.000000 -6.971572 -11.821105 15.406781 -7.377946 53.617815 -17.254969 -14.471977 10.189297 -6.025235 0.000000 0.000000 0.000000 
-2971.331543 857.030396 1099.130005 7.349292 4.255060 1.072752 -3.781596 10.567944 5.569510 0.037300 -1.731456 -1.103906 0.948483 1.854156 0.805032 0.299727 -3.717398 -0.217778 0.000000 0.000000 0.000000 6.136471 -2.509485 -3.245458 -3.692332 -0.825170 -2.955027 0.695841 -24.274304 21.708942 0.000000 0.000000 0.000000 -0.060964 -3.541494 -0.046714 0.065167 -3.371573 0.936884 -0.565347 -8.955903 0.318705 0.000000 0.000000 0.000000 -1.057057 -13.891865 -6.701821 -5.010545 21.467468 -5.472137 -4.599327 -5.585914 -0.149608 0.000000 0.000000 0.000000 -6.178825 -12.977376 15.274906 -6.917680 56.042574 -17.429323 -13.388979 9.646383 -5.585762 0.000000 0.000000 0.000000 
-2963.097412 859.135071 1102.182983 6.522266 4.051944 1.458848 -3.485025 10.347057 5.141558 0.509806 -1.645673 -1.063290 1.441313 1.809596 0.711376 0.312609 -3.625921 -0.288795 0.000000 0.000000 0.000000 6.055660 -2.523068 -3.333141 -3.577424 -0.785982 -2.772175 0.660799 -23.339422 21.117448 0.000000 0.000000 0.000000 0.165832 -3.127785 0.052055 0.079601 -3.077906 0.491336 -0.649343 -9.632466 0.300595 0.000000 0.000000 0.000000 -0.908574 -12.778224 -7.337918 -4.640652 20.325078 -4.977238 -4.343530 -5.134809 -0.184632 0.000000 0.000000 0.000000 -5.163335 -13.910216 14.915035 -6.199350 58.156738 -17.330779 -11.737649 8.465799 -4.856942 0.000000 0.000000 0.000000 
-2955.582520 861.635376 1104.941040 5.808150 3.824513 1.734291 -3.227020 10.166943 4.808512 0.875771 -1.566989 -1.027084 1.811181 1.763762 0.640033 0.318571 -3.538967 -0.331230 0.000000 0.000000 0.000000 5.946579 -2.595713 -3.420019 -3.418034 -0.812829 -2.568839 0.655106 -22.379984 20.490453 0.000000 0.000000 0.000000 0.295561 -2.779051 0.099040 0.111149 -2.786660 0.280820 -0.729632 -10.235799 0.224006 0.000000 0.000000 0.000000 -0.837298 -11.696362 -7.877055 -4.290477 19.237928 -4.532433 -4.071151 -4.637630 -0.227563 0.000000 0.000000 0.000000 -4.241313 -14.822644 14.599770 -5.560817 59.851581 -17.071061 -10.153280 6.718371 -4.072155 0.000000 0.000000 0.000000 
-2949.034668 864.388733 1107.313965 5.357136 3.536652 1.839225 -3.094387 10.114556 4.626661 1.083505 -1.526320 -1.017633 2.019652 1.736320 0.601871 0.309056 -3.439623 -0.312659 0.000000 0.000000 0.000000 5.799312 -2.796353 -3.487787 -3.189826 -0.974777 -2.313955 0.677163 -21.351178 19.708455 0.000000 0.000000 0.000000 0.256531 -2.519664 0.067129 0.179561 -2.496868 0.355777 -0.781777 -10.809254 0.237079 0.000000 0.000000 0.000000 -0.852360 -10.607828 -8.219259 -3.984582 18.243628 -4.212582 -3.806324 -4.112077 -0.282901 0.000000 0.000000 0.000000 -3.520722 -15.804180 14.422793 -5.127844 61.154294 -16.660047 -8.888393 4.300815 -3.321290 0.000000 0.000000 0.000000 
